<?xml version="1.0" ?><svg width="32px" height="32px" viewBox="0 0 32 32" id="template" xmlns="http://www.w3.org/2000/svg"><title/><path d="M28.41,19.808a2.184,2.184,0,0,0-.514-1.374,2.581,2.581,0,0,0-1.551-.79,6.49,6.49,0,0,0-.057-1.484,3.079,3.079,0,0,0-1.283-2.084,4.855,4.855,0,0,0-3.113-.64A7.707,7.707,0,0,0,19.618,8.91C14.952,4.818,4.479,7.512,4.036,7.629a.357.357,0,0,0-.214.16L2.377,10.2a.355.355,0,0,0,.3.537c.023,0,.047.006.071.008-.766.807-1.824,2.563-.376,5.318,1.5,2.855,6.5,7.468,10.648,7.467a5,5,0,0,0,1.117-.13,10.526,10.526,0,0,0,5.9,1.731c.363,0,.579-.019.591-.02a.355.355,0,0,0,.306-.253l.038-.135a2.289,2.289,0,0,0,1.486.627,1.917,1.917,0,0,0,.952-.262,2.86,2.86,0,0,0,.845-.829,2.791,2.791,0,0,0,1.132.3,2.056,2.056,0,0,0,.923-.218,2.332,2.332,0,0,0,.461-.317,3.35,3.35,0,0,0,1.382.286,3.465,3.465,0,0,0,1.072-.163,1.566,1.566,0,0,0,1.023-.832C30.826,21.881,28.969,20.256,28.41,19.808ZM2.994,15.732c-1.532-2.915.109-4.447.6-4.818A7.107,7.107,0,0,1,5.98,12.493L4.7,13.481a.354.354,0,1,0,.434.56l1.358-1.048q.618.635,1.264,1.442l-1.257.97a.354.354,0,0,0,.434.56l1.26-.972c.495.652,1,1.38,1.516,2.174l-1.289.994a.355.355,0,0,0,.434.561l1.239-.956q.9,1.439,1.83,3.144A7.331,7.331,0,0,0,13.394,22.8C9.6,23.115,4.5,18.6,2.994,15.732Zm17.321,8.685c-1.108.052-5.7-.038-7.77-3.844A47.023,47.023,0,0,0,8.55,14.3c-.005-.008,0-.019-.007-.027s-.018-.007-.025-.015c-1.555-1.99-3.22-3.553-4.844-4.053a.324.324,0,0,0-.1-.03c-.1-.028-.2-.065-.3-.085l1.086-1.81c1.256-.306,10.69-2.44,14.8,1.163C23.151,12.951,20.758,22.755,20.315,24.417Zm2.744.053a1.5,1.5,0,0,1-1.882-.551A29.022,29.022,0,0,0,22,14.139a4.156,4.156,0,0,1,2.6.521,2.4,2.4,0,0,1,.987,1.625,6.432,6.432,0,0,1,.022,1.675v0h0C25.371,20.473,24.145,23.86,23.059,24.47ZM25.99,23.7a1.567,1.567,0,0,1-1.356-.035,15.374,15.374,0,0,0,1.649-5.314,1.869,1.869,0,0,1,1.078.548,1.77,1.77,0,0,1,.32,1.458C27.51,21.6,26.965,23.217,25.99,23.7Zm3.6-.66a.924.924,0,0,1-.591.427,2.9,2.9,0,0,1-1.707-.006,7.015,7.015,0,0,0,1.054-2.77C29.012,21.313,29.877,22.331,29.588,23.041Z"/></svg>