<svg width="291" height="309" viewBox="0 0 291 309" fill="none" xmlns="http://www.w3.org/2000/svg">
<path d="M252.308 43.638L238.096 129.977C238.067 130.15 238.078 130.328 238.127 130.495C238.175 130.661 238.26 130.808 238.372 130.922C238.484 131.035 238.62 131.111 238.764 131.14C238.909 131.169 239.058 131.151 239.195 131.088L254.389 124.219C254.425 124.473 254.462 124.735 254.496 124.977C258.144 152.554 255.471 180.8 246.762 206.693C238.052 232.586 223.636 255.149 205.056 271.968C186.474 288.785 164.43 299.223 141.282 302.165C118.134 305.107 94.7554 300.441 73.6491 288.666C95.7805 303.389 120.914 310.359 146.187 308.781C171.46 307.203 195.855 297.144 216.593 279.746C237.331 262.347 253.578 238.313 263.483 210.379C273.387 182.445 276.552 151.735 272.615 121.75L290.114 123.454C290.263 123.468 290.41 123.433 290.545 123.354C290.678 123.275 290.79 123.153 290.87 123.003C290.951 122.853 290.995 122.679 291 122.501C291.003 122.322 290.968 122.146 290.895 121.99L253.827 43.3394C253.744 43.1648 253.619 43.0249 253.467 42.9384C253.316 42.8519 253.146 42.8229 252.982 42.8554C252.816 42.8879 252.663 42.9804 252.542 43.1201C252.422 43.2601 252.34 43.4408 252.308 43.638Z" fill="#3C4AE3"/>
<path d="M225.165 223.765C213.685 241.279 198.941 255.321 182.119 264.764C165.296 274.207 146.863 278.79 128.297 278.143C109.731 277.496 91.5503 271.639 75.213 261.04C58.8758 250.441 44.8371 235.396 34.2237 217.113C23.6102 198.831 16.7174 177.817 14.0982 155.76C11.4792 133.704 13.2067 111.219 19.1424 90.1082C25.078 68.9976 35.0564 49.8497 48.2768 34.2011C61.4973 18.5525 77.5917 6.83877 95.2687 0C72.4902 6.71517 51.7438 20.9746 35.3963 41.1517C19.0487 61.3288 7.75824 86.611 2.81283 114.114C-2.13258 141.617 -0.533798 170.234 7.42682 196.699C15.3875 223.166 29.3894 246.414 47.8352 263.795C66.2811 281.176 88.4281 291.987 111.75 294.997C135.072 298.006 158.629 293.092 179.735 280.815C200.841 268.539 218.645 249.394 231.117 225.565C243.587 201.736 250.224 174.182 250.269 146.046C248.594 174.388 239.846 201.468 225.165 223.765Z" fill="#3C4AE3"/>
<path d="M199.044 73.2663C191.724 84.4494 183.399 94.6321 174.221 103.631C174.128 103.722 174.053 103.837 174.001 103.968C173.95 104.099 173.923 104.241 173.923 104.386V244.09C173.923 245.214 173.626 246.309 173.073 247.216C172.52 248.125 171.742 248.799 170.85 249.141L170.754 249.178C170.093 249.432 169.391 249.495 168.706 249.362C168.02 249.23 167.37 248.904 166.809 248.414C166.248 247.922 165.792 247.279 165.477 246.537C165.162 245.794 164.999 244.973 164.999 244.14V113.892C164.999 113.713 164.958 113.537 164.882 113.384C164.805 113.231 164.694 113.106 164.561 113.023C164.429 112.94 164.28 112.902 164.131 112.914C163.982 112.926 163.838 112.986 163.716 113.089C151.563 123.126 138.314 131.105 124.344 136.799C124.183 136.864 124.042 136.989 123.942 137.155C123.844 137.321 123.79 137.52 123.79 137.724V250.554C123.79 251.337 123.645 252.111 123.365 252.818C123.086 253.526 122.679 254.151 122.176 254.649C121.671 255.146 121.08 255.502 120.447 255.694C119.814 255.884 119.153 255.905 118.512 255.752L118.339 255.711C117.34 255.474 116.441 254.827 115.795 253.882C115.15 252.936 114.798 251.752 114.801 250.53C114.824 238.382 114.847 222.026 114.864 222.038V141.563C114.864 141.413 114.835 141.265 114.78 141.13C114.724 140.996 114.644 140.878 114.545 140.787C114.445 140.696 114.33 140.633 114.207 140.604C114.084 140.575 113.957 140.58 113.837 140.619L113.433 140.747C102.036 144.339 91.9516 152.357 84.755 163.55C77.5585 174.744 73.6549 188.48 73.654 202.614V221.145C73.6562 222.18 73.4052 223.194 72.9322 224.059C72.4593 224.925 71.785 225.606 70.9929 226.017C70.2008 226.427 69.3256 226.552 68.4756 226.372C67.6258 226.193 66.8383 225.719 66.2107 225.007C48.7061 204.827 37.5761 177.991 34.7167 149.072C31.8572 120.152 37.4453 90.9384 50.529 66.4066C63.6126 41.8747 83.3824 23.543 106.47 14.5342C129.558 5.52532 154.535 6.39679 177.148 17.0002C159.344 6.848 139.6 2.59504 119.963 4.68246C100.327 6.76987 81.5139 15.1216 65.4758 28.8712C49.4377 42.6209 36.759 61.2675 28.7548 82.8767C20.7508 104.486 17.7128 128.27 19.9563 151.763C22.1998 175.254 29.6429 197.6 41.5136 216.477C53.3842 235.357 69.2499 250.081 87.4646 259.125C105.679 268.167 125.58 271.199 145.101 267.908C164.623 264.615 183.053 255.116 198.482 240.397C203.865 235.942 208.886 230.888 213.476 225.302L213.958 224.683C214.718 223.705 215.141 222.417 215.138 221.079V48.7608C215.138 48.7608 215.138 48.1461 215.138 47.3309C215.139 47.1129 215.08 46.9007 214.97 46.7275C214.859 46.5545 214.704 46.4304 214.528 46.375C214.352 46.3195 214.166 46.3357 213.999 46.4211C213.831 46.5064 213.694 46.656 213.604 46.8464C209.359 56.1145 204.489 64.9506 199.044 73.2663Z" fill="#3C4AE3"/>
<path d="M37.105 155.069L54.9528 160.265L36.4205 136.596L36.059 126.84L61.1405 146.774L61.4167 154.227L54.5606 148.778L42.6986 138.63L61.7498 163.216L61.9388 168.317L43.6251 163.183L55.4149 171.832L62.271 177.281L62.5462 184.71L37.4646 164.776L37.105 155.069Z" fill="#3C4AE3"/>
<path d="M62.6565 116.843C61.78 120.633 60.2697 122.985 58.1256 123.898C55.9851 124.796 53.5902 124.017 50.941 121.563L50.4831 121.138C48.706 119.492 47.2357 117.52 46.0722 115.224C44.8979 112.918 44.1463 110.5 43.8175 107.972C43.4816 105.418 43.5861 102.962 44.1311 100.606C44.9487 97.0708 46.3545 94.9994 48.3485 94.3914C50.3462 93.7675 52.746 94.7537 55.5479 97.3499L57.4776 99.1379L53.6716 115.595C54.8788 116.443 55.9601 116.632 56.9157 116.164C57.8749 115.68 58.5534 114.578 58.9511 112.859C59.5661 110.2 59.3871 107.51 58.4141 104.791L61.7987 103.809C62.5623 105.773 63.0232 107.902 63.1814 110.195C63.3286 112.477 63.1536 114.694 62.6565 116.843ZM47.9523 104.175C47.6356 105.545 47.694 106.952 48.1275 108.398C48.5646 109.828 49.3443 111.208 50.4665 112.538L52.6872 102.936L52.311 102.588C51.2571 101.65 50.3545 101.316 49.6035 101.587C48.8415 101.848 48.2911 102.711 47.9523 104.175Z" fill="#3C4AE3"/>
<path d="M56.5376 67.452L58.5253 69.2714C58.0793 66.2564 58.714 63.4982 60.4292 60.9968C62.2582 58.3295 64.3637 57.4034 66.7458 58.2186C66.044 54.953 66.6163 51.9738 68.4628 49.2809C70.003 47.0347 71.6798 45.928 73.4933 45.9607C75.2965 45.9825 77.2591 47.1236 79.3809 49.3842L90.0569 60.7585L86.2501 66.3101L75.5896 54.9523C74.642 53.9428 73.7943 53.4372 73.0467 53.4358C72.2887 53.4234 71.5116 53.9978 70.7152 55.1592C69.5776 56.8183 69.4286 58.6473 70.2682 60.6462L81.7608 72.8572L77.9672 78.3897L67.322 67.0484C66.3538 66.0169 65.4915 65.5068 64.7351 65.5181C63.9787 65.5294 63.2111 66.103 62.4323 67.2388C61.3559 68.8086 61.1023 70.5041 61.6716 72.3254L73.491 84.9177L69.6973 90.4502L52.9803 72.6399L56.5376 67.452Z" fill="#3C4AE3"/>
<path d="M91.4875 43.3301C89.9352 41.4298 88.937 39.5154 88.4929 37.5868C88.0489 35.6582 88.2153 33.8738 88.9922 32.2336C89.7815 30.5863 91.1335 29.2145 93.0481 28.1181C95.7708 26.5591 98.636 26.0792 101.644 26.6784C104.664 27.2704 107.382 28.8669 109.798 31.4677L110.906 32.7565C113.307 35.6954 114.371 38.5508 114.099 41.3226C113.817 44.0826 112.221 46.2956 109.312 47.9614C106.403 49.6273 103.355 50.0733 100.168 49.2995C96.994 48.5185 94.163 46.6055 91.6755 43.5603L91.4875 43.3301ZM97.1806 40.6158C98.6654 42.4335 100.164 43.6198 101.675 44.1748C103.177 44.7179 104.6 44.6051 105.943 43.8362C107.248 43.0887 107.882 42.0329 107.844 40.6686C107.796 39.2925 106.919 37.5599 105.213 35.4708C103.757 33.6885 102.262 32.5175 100.728 31.9579C99.1946 31.3983 97.7626 31.4993 96.4323 32.261C95.1145 33.0156 94.4951 34.0892 94.5743 35.4818C94.6438 36.8625 95.5126 38.5739 97.1806 40.6158Z" fill="#3C4AE3"/>
<path d="M130.918 21.9302C130.047 22.0186 129.307 22.1342 128.699 22.277C126.482 22.7977 125.535 23.8257 125.859 25.3611L135.556 38.5023L129.695 39.8785L114.876 19.7956L120.412 18.4955L122.341 20.8518C122.157 18.7319 123.106 17.4275 125.188 16.9386C125.837 16.7862 126.505 16.7237 127.191 16.7513L130.918 21.9302Z" fill="#3C4AE3"/>
<path d="M158.695 28.4921L154.157 15.42L160.563 15.3732L167.679 39.6624L167.918 40.7706C168.403 43.5192 167.109 44.9047 164.037 44.9271C163.169 44.9335 162.206 44.8172 161.147 44.5782L158.325 40.3343L159.247 40.347C160.377 40.3388 161.11 40.1712 161.446 39.8442C161.796 39.5171 161.881 38.9777 161.699 38.2261L161.255 36.4962L139.444 15.5273L145.87 15.4804L158.695 28.4921Z" fill="#3C4AE3"/>
</svg>
